<?xml version="1.0" encoding="UTF-8"?>
<svg id="Layer_2" data-name="Layer 2" xmlns="http://www.w3.org/2000/svg" viewBox="0 0 260.76 189.2">
  <defs>
    <style>
      .cls-1 {
        fill: #ffa8ba;
      }

      .cls-1, .cls-2 {
        stroke-width: 0px;
      }

      .cls-2 {
        fill: #00332c;
      }
    </style>
  </defs>
  <g id="Layer_1-2" data-name="Layer 1">
    <g>
      <path class="cls-2" d="m136.14.09c10.02-.66,20.89,2.39,27.94,9.79,15.81-8.84,33.42-1.93,39.47,14.98,21.11-2.22,38.95,15.34,39.32,36.15,14.37,5.97,19.63,24.17,12.96,37.74,9.93,13.36,4.32,35.51-12.39,40.33-1.08,27.56-36.54,34.97-58.63,29.82-.18,4.56,10.23,18.77,2.3,20.17-.98.17-18.9.18-19.88,0-4.08-.75-5.53-6.67-7.63-9.65-4.09-5.81-10.16-13.78-16.28-17.14-9.52,17.48-27.01,19.37-45.23,18.15-14.62-.98-24.7-6.34-32.27-19.01-13.39,8.07-33.39,5.01-42.06-8.64-18.68-1.03-27.51-23.41-18.29-38.46-7.45-9.03-7.48-24.61.86-33.13C1.09,55.58,26.85,31.74,51.73,32.64,61.04,7.5,92.15-8.72,115.98,7.87c5.68-4.31,13-7.31,20.17-7.78Z"/>
      <g>
        <path class="cls-1" d="m136.14,10.75c17.59-1.5,21.82,9.78,23.19,11.09,6.6,6.31,10.15-9.72,24.63-4.18,11.99,4.59,7.51,17.29,12.1,19.59,4.77,2.39,6.32-3.7,16.71-1.44,6.93,1.51,15.17,8.86,17.72,15.41,3.8,9.77-1.1,13.32.86,17,2.04,3.81,9.49.1,14.4,8.64,6.75,11.73-2.07,19.92-2.3,21.03-1.23,5.73,6.19,5.63,6.91,14.69.7,8.79-4.04,15.19-12.82,16.28-14.85-11.43-35.05-.89-28.66,7.06,4.45,5.54,10.29-6.27,20.6.14,10.39,6.47-5.16,19.23-16.13,22.18-8.78,2.36-26.9,2-32.27-1.15-1.12-.66-3.3-5.35-8.07-3.17-7.07,3.24,3.1,19.14,3.31,24.63-.14.17-4.09.27-4.47.14-1.98-.66-11.99-22.97-29.38-28.52-6.48-4.3-15.18-22.03-36.3-8.64-7.91-12.52-21.92-16.17-32.7-4.47-5.93,6.45-4.81,12.08-13.97,15.99-7.3,3.11-16.2,3.3-22.76-1.73-5.37-4.12-1.31-8.43-6.05-10.08-1.79-.62-10.06,2.4-15.41-4.47-2.4-3.08-3.43-8.28-2.88-12.1.85-5.91,8.01-8.07,5.47-12.96-.5-.96-10.6-6.91-6.63-19.01,2.03-6.18,8.93-7.47,7.49-12.39-.59-2.02-5.41-3.16-.86-14.98,4.02-10.44,17.75-21.33,28.95-22.04,5.44-.34,10.59,5.28,13.68-1.87.6-1.39,1.06-7.51,6.34-14.69,8.62-11.73,27.32-20.25,40.76-11.67,2.78,1.77,5.1,5.55,7.49,6.63,2.9,1.3,7.58,1.62,8.79-2.16.92-2.89-.52-3.67.14-4.47,1.3-1.55,9.81-4.13,12.1-4.32Z"/>
        <g>
          <g>
            <path class="cls-2" d="m175.03,38.12c9.83-1.24,7.78,18.97,3.89,29.24-1.41,3.71-6.19,11.44-6.05,12.1,5.73,4.86,11.58,9.95,15.56,16.42,2.38,3.87,9.42,17.39,1.58,18.87-7.74,1.47-4.78-6.2-12.53-16.28-8.57-11.15-18.73-10.69-16.42-19.01.46-1.64,8.37-14.06,10.08-21.32,2.74-11.62-2.65-16.28,1.87-19.16.18-.12,1.91-.85,2.02-.86Z"/>
            <path class="cls-2" d="m117.42,43.3c7.96-1.74,5.85,8.11,6.48,12.53,2.17,15.1,11.65,26.76,12.96,31.4,2.3,8.13-7.55,10.95-15.56,19.59-5.55,5.99-7.76,14.53-13.97,10.23-8.16-5.65,13.04-24.21,17.72-27.51-.9-6.58-5.5-11.73-7.78-17.86-1.84-4.96-7.4-26.72.14-28.38Z"/>
          </g>
          <path class="cls-2" d="m90.05,30.91c9.73-1.55,3.8,11.83,3.31,15.99-1.96,16.71,7.36,32.18,2.88,42.64-2.41,5.64-8.87,4.47-10.08.29-.6-2.07,1.3-5.38.86-11.24-.29-3.94-3.61-15.08-4.03-20.74-.38-5.05.33-25.86,7.06-26.94Z"/>
          <path class="cls-2" d="m142.48,114.75c8.5-1.95,31.56,18.96,22.76,24.78-5.66,3.74-8.13-3.39-10.23-5.62-8.38-8.93-15.71-9.83-16.13-13.54-.23-1.96,1.52-5.14,3.6-5.62Z"/>
          <path class="cls-2" d="m224.3,77.87c3.74-.51,6.88,2.76,5.62,6.48-.28.84-6.01,6.08-9.22,14.98-1,2.77-.45,10.94-7.63,9.36-9.34-2.04,3.63-29.78,11.24-30.83Z"/>
          <g>
            <path class="cls-2" d="m144.5,31.49c9.04-1.02,12.08,28.5,4.32,29.67-7.1,1.07-5.5-9.05-6.19-13.68-.96-6.37-4.77-15.24,1.87-15.99Z"/>
            <g>
              <path class="cls-2" d="m61.82,102.93c2.46-.46,5.69,1,6.19,3.6.85,4.43-9.22,26.81-13.4,28.66-3.82,1.7-7.92-1.14-7.35-5.33.11-.82,5.53-10.37,6.63-12.68,1.6-3.36,4.25-13.58,7.92-14.26Z"/>
              <path class="cls-2" d="m36.47,91.7c1.92-.27,4.28.43,5.33,2.16,3.18,5.25-4.32,8.34-6.34,13.25-1.38,3.37-.44,12.03-7.63,9.94-8.86-2.57,1.48-24.34,8.64-25.35Z"/>
            </g>
          </g>
          <path class="cls-2" d="m44.82,62.6c3.73-.49,22.96,5.85,17.43,13.68-3.14,4.45-8.59-.18-11.96-1.58-1.62-.68-7.18-2.5-7.78-2.88-3.96-2.53-2.22-8.63,2.3-9.22Z"/>
          <path class="cls-2" d="m204.13,53.67c10.31-1.86,6.77,20.81-2.02,16.42-4.11-2.05-2.98-15.52,2.02-16.42Z"/>
        </g>
      </g>
    </g>
  </g>
</svg>